<?xml version="1.0" encoding="UTF-8" standalone="no"?>
<svg xmlns="http://www.w3.org/2000/svg" xmlns:ns1="http://www.w3.org/1999/xlink" xmlns:xlink="http://www.w3.org/1999/xlink" xmlns:mc="http://thalesgroup.com/mc" style="background-color:#D8D8D8" displayLayerSwitcher="true" displayPanZoomBar="true" id="svg8068" maxExtent="0.0 0.0 7219.0 3325.0" restrictedExtent="" width="7219" displayScaleLine="false" contentScriptType="text/ecmascript" displayMousePosition="false" preserveAspectRatio="xMinYMin meet" viewBox="0 0 7219 3325" resolutionReference="1.0" zoomAndPan="magnify" version="1.1" resolution="0.2 0.4 0.5 0.6 0.8 1.0 1.2 1.4 1.5 1.6 1.8 2.0 4.0" contentStyleType="text/css" initialExtent="" displayScale="false" x="0.0" y="0.0" height="3325">
 <defs style="background-color:#D8D8D8" id="defs8165" transform="scale(1.000000) ">
 <image width="200" ns1:href="file:../../../../../../../../../../ISCS/Representations/Functional/DohBacsDiagRio/.svg/default.svg" xlink:type="simple" xlink:actuate="onLoad" height="200" id="DohBacsDiagRio" preserveAspectRatio="xMidYMid meet" xlink:show="embed"/>
 <image width="200" ns1:href="file:../../../../../../../../../ISCS/Representations/Functional/DohBacsDiagSer/.svg/default.svg" xlink:type="simple" xlink:actuate="onLoad" height="200" id="DohBacsDiagSer" preserveAspectRatio="xMidYMid meet" xlink:show="embed"/>
 <image width="200" ns1:href="file:../../../../../../../../../ISCS/Representations/Functional/DohBacsLsh/.svg/default.svg" xlink:type="simple" xlink:actuate="onLoad" height="200" id="DohBacsLsh" preserveAspectRatio="xMidYMid meet" xlink:show="embed"/>
 <image width="200" ns1:href="file:../../../../../../../../../ISCS/Representations/Functional/DohBacsHovr/.svg/default.svg" xlink:type="simple" xlink:actuate="onLoad" height="200" id="DohBacsHovr" preserveAspectRatio="xMidYMid meet" xlink:show="embed"/>
 <image width="200" ns1:href="file:../../../../../../../../../ISCS/Representations/Functional/DohBacsDiagPlc/.svg/default.svg" xlink:type="simple" xlink:actuate="onLoad" height="200" id="DohBacsDiagPlc" preserveAspectRatio="xMidYMid meet" xlink:show="embed"/>
 <image width="200" ns1:href="file:../../../../../../../../../ISCS/Representations/Functional/DohBacsFireMod/.svg/default.svg" xlink:type="simple" xlink:actuate="onLoad" height="200" id="DohBacsFireMod" preserveAspectRatio="xMidYMid meet" xlink:show="embed"/>
 <image width="200" ns1:href="file:../../../../../../../../../../ISCS/Representations/Functional/DohBacsDiagNwsw/.svg/default.svg" xlink:type="simple" xlink:actuate="onLoad" height="200" id="DohBacsDiagNwsw" preserveAspectRatio="xMidYMid meet" xlink:show="embed"/>
 <image width="200" ns1:href="file:../../../../../../../../../ISCS/Representations/Functional/DohBacsLigMod/.svg/default.svg" xlink:type="simple" xlink:actuate="onLoad" height="200" id="DohBacsLigMod" preserveAspectRatio="xMidYMid meet" xlink:show="embed"/>
 <image xmlns:ns0="http://www.w3.org/1999/xlink" width="200.0" ns0:href="file:../../../../../../../../../..//ISCS/Representations/Functional/NavArrow_Left/.svg/default.svg" xlink:type="simple" xlink:actuate="onLoad" id="_V7EnMETnEeWaHvxsOBt1WQ" height="200.0" preserveAspectRatio="xMidYMid meet" xlink:show="embed"/>
 <image xmlns:ns0="http://www.w3.org/1999/xlink" width="200.0" ns0:href="file:../../../../../../../../../..//ISCS/Representations/Functional/NavArrow_Right/.svg/default.svg" xlink:type="simple" xlink:actuate="onLoad" id="_LirekES8EeWaHvxsOBt1WQ" height="200.0" preserveAspectRatio="xMidYMid meet" xlink:show="embed"/>
 <image xmlns:ns0="http://www.w3.org/1999/xlink" width="200.0" ns0:href="file:../../../../../../../../../ISCS/Representations/Functional/Ptw/.svg/default.svg" xlink:type="simple" xlink:actuate="onLoad" id="_UbwxYP6cEea2ir9G59T9HQ" height="200.0" preserveAspectRatio="xMidYMid meet" xlink:show="embed"/>
 <image xmlns:ns0="http://www.w3.org/1999/xlink" width="200.0" ns0:href="file:../../../../../../../../../ISCS/Representations/Functional/DohBacsCds/.svg/default.svg" xlink:type="simple" xlink:actuate="onLoad" id="_1f8EcMLSEeetjoi2WK0QMQ" height="200.0" preserveAspectRatio="xMidYMid meet" xlink:show="embed"/>
 <image xmlns:ns0="http://www.w3.org/1999/xlink" width="200.0" ns0:href="file:../../../../../../../../../ISCS/Representations/Functional/DohBacsCpm/.svg/default.svg" xlink:type="simple" xlink:actuate="onLoad" id="__nPLMLroEeeLy8868mfXIA" height="200.0" preserveAspectRatio="xMidYMid meet" xlink:show="embed"/>
 <image xmlns:ns0="http://www.w3.org/1999/xlink" width="200.0" ns0:href="file:../../../../../../../../../ISCS/Representations/Functional/DohBacsChwh/.svg/default.svg" xlink:type="simple" xlink:actuate="onLoad" id="_7UVW4MLQEeeL65l03tuNYA" height="200.0" preserveAspectRatio="xMidYMid meet" xlink:show="embed"/>
 <image xmlns:ns0="http://www.w3.org/1999/xlink" width="200.0" ns0:href="file:../../../../../../../../../ISCS/Representations/Functional/DohBacsChwp/.svg/default.svg" xlink:type="simple" xlink:actuate="onLoad" id="_VJ7RUMLQEeeL65l03tuNYA" height="200.0" preserveAspectRatio="xMidYMid meet" xlink:show="embed"/>
 <image xmlns:ns0="http://www.w3.org/1999/xlink" width="200.0" ns0:href="file:../../../../../../../../../ISCS/Representations/Functional/DohBacsHex/.svg/default.svg" xlink:type="simple" xlink:actuate="onLoad" id="_UD3Q8L0ZEeeZTKIXWf92aQ" height="200.0" preserveAspectRatio="xMidYMid meet" xlink:show="embed"/>
 <image xmlns:ns0="http://www.w3.org/1999/xlink" width="200.0" ns0:href="file:../../../../../../../../../ISCS/Representations/Functional/DohBacsPmu/.svg/default.svg" xlink:type="simple" xlink:actuate="onLoad" id="_CZJQsMLBEee62KrShjok0Q" height="200.0" preserveAspectRatio="xMidYMid meet" xlink:show="embed"/>
 </defs>
 <path d="M2994 182 L2994 642" id="polyline8071" style="background-color:#D8D8D8;stroke-dashoffset:0;fill:none;stroke-dasharray: 6 8 2 8 2 8;stroke:#3C5F8B;stroke-width:2px;" class="AnPolyline" transform="scale(1.000000) "/>
 <path d="M50 182 L50 642" id="polyline8073" style="background-color:#D8D8D8;stroke-dashoffset:0;fill:none;stroke-dasharray: 6 8 2 8 2 8;stroke:#3C5F8B;stroke-width:2px;" class="AnPolyline" transform="scale(1.000000) "/>
 <path d="M53 173 L2985 173" id="polyline8075" style="background-color:#D8D8D8;stroke-dashoffset:0;fill:none;stroke-dasharray: 6 8 2 8 2 8;stroke:#3C5F8B;stroke-width:2px;" class="AnPolyline" transform="scale(1.000000) "/>
 <path d="M108 304 L973 304L108 304" id="polyline8077" style="background-color:#D8D8D8;fill:none;stroke:#3C5F8B;stroke-width:3px;" class="AnPolyline" transform="scale(1.000000) "/>
 <path d="M968 185 L968 305L968 185" id="polyline8079" style="background-color:#D8D8D8;fill:none;stroke:#3C5F8B;stroke-width:3px;" class="AnPolyline" transform="scale(1.000000) "/>
 <path d="M108 192 L108 311L108 192" id="polyline8081" style="background-color:#D8D8D8;fill:none;stroke:#3C5F8B;stroke-width:3px;" class="AnPolyline" transform="scale(1.000000) "/>
 <g style="background-color:#D8D8D8" id="g8083">
 <g style="background-color:#D8D8D8" id="g8085">
 <path d="M101 700L7110 700" id="polyline8087" style="background-color:#D8D8D8;fill:none;stroke:#3C5F8B;stroke-width:2px;" class="AnPolyline"/>
 <path d="M98 701L98 3097" id="polyline8089" style="background-color:#D8D8D8;fill:none;stroke:#3C5F8B;stroke-width:2px;" class="AnPolyline"/>
 <path d="M104 1000L7107 1000" id="polyline8091" style="background-color:#D8D8D8;fill:none;stroke:#3C5F8B;stroke-width:2px;" class="AnPolyline"/>
 <path d="M104 1300L7107 1300" id="polyline8093" style="background-color:#D8D8D8;fill:none;stroke:#3C5F8B;stroke-width:2px;" class="AnPolyline"/>
 <path d="M104 1600L7107 1600" id="polyline8095" style="background-color:#D8D8D8;fill:none;stroke:#3C5F8B;stroke-width:2px;" class="AnPolyline"/>
 <path d="M104 1900L7107 1900" id="polyline8097" style="background-color:#D8D8D8;fill:none;stroke:#3C5F8B;stroke-width:2px;" class="AnPolyline"/>
 <path d="M104 2200L7107 2200" id="polyline8099" style="background-color:#D8D8D8;fill:none;stroke:#3C5F8B;stroke-width:2px;" class="AnPolyline"/>
 <path d="M104 2500L7107 2500" id="polyline8101" style="background-color:#D8D8D8;fill:none;stroke:#3C5F8B;stroke-width:2px;" class="AnPolyline"/>
 <path d="M104 2800L7107 2800" id="polyline8103" style="background-color:#D8D8D8;fill:none;stroke:#3C5F8B;stroke-width:2px;" class="AnPolyline"/>
 <path d="M101 3098L7110 3098" id="polyline8105" style="background-color:#D8D8D8;fill:none;stroke:#3C5F8B;stroke-width:2px;" class="AnPolyline"/>
 <path d="M7115 701L7115 3097" id="polyline8107" style="background-color:#D8D8D8;fill:none;stroke:#3C5F8B;stroke-width:2px;" class="AnPolyline"/>
 <path d="M637 701L637 3097" id="polyline8109" style="background-color:#D8D8D8;fill:none;stroke:#3C5F8B;stroke-width:2px;" class="AnPolyline"/>
 <path d="M1176 701L1176 3097" id="polyline8111" style="background-color:#D8D8D8;fill:none;stroke:#3C5F8B;stroke-width:2px;" class="AnPolyline"/>
 <path d="M1715 701L1715 3097" id="polyline8113" style="background-color:#D8D8D8;fill:none;stroke:#3C5F8B;stroke-width:2px;" class="AnPolyline"/>
 <path d="M2255 701L2255 3097" id="polyline8115" style="background-color:#D8D8D8;fill:none;stroke:#3C5F8B;stroke-width:2px;" class="AnPolyline"/>
 <path d="M2794 701L2794 3097" id="polyline8117" style="background-color:#D8D8D8;fill:none;stroke:#3C5F8B;stroke-width:2px;" class="AnPolyline"/>
 <path d="M3333 701L3333 3097" id="polyline8119" style="background-color:#D8D8D8;fill:none;stroke:#3C5F8B;stroke-width:2px;" class="AnPolyline"/>
 <path d="M3872 701L3872 3097" id="polyline8121" style="background-color:#D8D8D8;fill:none;stroke:#3C5F8B;stroke-width:2px;" class="AnPolyline"/>
 <path d="M4411 701L4411 3097" id="polyline8123" style="background-color:#D8D8D8;fill:none;stroke:#3C5F8B;stroke-width:2px;" class="AnPolyline"/>
 <path d="M4950 701L4950 3097" id="polyline8125" style="background-color:#D8D8D8;fill:none;stroke:#3C5F8B;stroke-width:2px;" class="AnPolyline"/>
 <path d="M5490 701L5490 3097" id="polyline8127" style="background-color:#D8D8D8;fill:none;stroke:#3C5F8B;stroke-width:2px;" class="AnPolyline"/>
 <path d="M6029 701L6029 3097" id="polyline8129" style="background-color:#D8D8D8;fill:none;stroke:#3C5F8B;stroke-width:2px;" class="AnPolyline"/>
 <path d="M6568 701L6568 3097" id="polyline8131" style="background-color:#D8D8D8;fill:none;stroke:#3C5F8B;stroke-width:2px;" class="AnPolyline"/>
 </g>
 <path d="M50 655L7164 655" id="polyline8133" style="background-color:#D8D8D8;stroke-dashoffset:0;fill:none;stroke-dasharray: 6 8 2 8 2 8;stroke:#3C5F8B;stroke-width:2px;" class="AnPolyline"/>
 <path d="M50 3148L7164 3148" id="polyline8135" style="background-color:#D8D8D8;stroke-dashoffset:0;fill:none;stroke-dasharray: 6 8 2 8 2 8;stroke:#3C5F8B;stroke-width:2px;" class="AnPolyline"/>
 <path d="M50 655L50 3151" id="polyline8137" style="background-color:#D8D8D8;stroke-dashoffset:0;fill:none;stroke-dasharray: 6 8 2 8 2 8;stroke:#3C5F8B;stroke-width:2px;" class="AnPolyline"/>
 <path d="M7167 655L7167 3151" id="polyline8139" style="background-color:#D8D8D8;stroke-dashoffset:0;fill:none;stroke-dasharray: 6 8 2 8 2 8;stroke:#3C5F8B;stroke-width:2px;" class="AnPolyline"/>
 </g>
 <text x="1920px" id="2" y="623px" style="background-color:#D8D8D8;font-size:40;text-decoration:none;fill:#3C5F8B;font-family:arial;font-style:normal;font-weight:normal;" class="AnText" transform="scale(1.000000) ">CDS</text>
 <path d="M103 187 L968 187L103 187" id="polyline8143" style="background-color:#D8D8D8;fill:none;stroke:#3C5F8B;stroke-width:3px;" class="AnPolyline" transform="scale(1.000000) "/>
 <text x="0px" id="text8145" y="13px" style="background-color:#D8D8D8;font-size:14;text-decoration:none;fill:#000000;font-family:arial;font-style:normal;font-weight:normal;" class="AnText" transform="scale(1.000000) matrix(9.849740,0.000000,0.000000,9.849740,3328.139893,250.201996)">Hamad International Airport</text>
 <text x="1380px" id="text8149" y="623px" style="background-color:#D8D8D8;font-size:40;text-decoration:none;fill:#3C5F8B;font-family:arial;font-style:normal;font-weight:normal;" class="AnText" transform="matrix(1 0 0 1 -83.33333206176758 0)">CHWP &amp; CHWH</text>
 <text x="840px" id="0" y="623px" style="background-color:#D8D8D8;font-size:40;text-decoration:none;fill:#3C5F8B;font-family:arial;font-style:normal;font-weight:normal;" class="AnText" transform="matrix(1 0 0 1 13.333333333333371 0)">HEX</text>
 <text x="0px" id="text8153" y="13px" style="background-color:#D8D8D8;font-size:14;text-decoration:none;fill:#3C5F8B;font-family:arial;font-style:normal;font-weight:normal;" class="AnText" transform="scale(1.000000) matrix(6.080800,0.000000,0.000000,6.080800,210.363998,192.354004)">Chiller Summary</text>
 <use mc:refType="symbol" mc:layerName="default" mc:navigationId="" mc:navImageExtent="" transform="matrix(1 0 0 1 6850 320)" mc:dbPath=":STA:REST020:BACS:MOD:LIG_MOD:LIGMOD1" xlink:show="embed" xlink:type="simple" mc:protoId="BasicEquipment_DohBacsLigMod_0XJuYLo1Eee4FZNjhxyf2w_1509012596806" mc:navImageId="" mc:hvEntityId="BACS_REST020_LIG_MOD_LIGMOD1" xlink:href="#_w_ReEL0eEee1SurXMUAsow" xlink:actuate="onLoad"/>
 <use mc:refType="symbol" mc:layerName="default" mc:navigationId="" mc:navImageExtent="" transform="matrix(1 0 0 1 6500 320)" mc:dbPath=":STA:REST020:BACS:MOD:LSH:LSH1" xlink:show="embed" xlink:type="simple" mc:protoId="BasicEquipment_DohBacsLsh_Cj_bwLrfEeeUOKN4pirLLA_1509085277052" mc:navImageId="" mc:hvEntityId="BACS_REST020_LSH_LSH1" xlink:href="#_pNC_QL0bEeek3rmti7IhRw" xlink:actuate="onLoad"/>
 <use mc:refType="symbol" mc:layerName="default" mc:navigationId="" mc:navImageExtent="" transform="matrix(1 0 0 1 6150 320)" mc:dbPath=":STA:REST020:BACS:MOD:STN_MOD:STNMOD1" xlink:show="embed" xlink:type="simple" mc:protoId="BasicEquipment_DohBacsStnMod_otofMAY0Eei0w_NNN6-fdA_1517368377507" mc:navImageId="" mc:hvEntityId="BACS_REST020_STN_MOD_STNMOD1" xlink:href="#_px0nYAb1Eei95eeTnw_44Q" xlink:actuate="onLoad"/>
 <use mc:refType="symbol" mc:layerName="default" mc:navigationId="" mc:navImageExtent="" transform="matrix(1 0 0 1 5800 320)" mc:dbPath=":STA:REST020:BACS:MOD:STNCTRL:STNCTRL1" xlink:show="embed" xlink:type="simple" mc:protoId="BasicEquipment_DohBacsStnctrl_sSE2UAY0Eei0w_NNN6-fdA_1517368401461" mc:navImageId="" mc:hvEntityId="BACS_REST020_STNCTRL_STNCTRL1" xlink:href="#_c-R8EAb4Eei95eeTnw_44Q" xlink:actuate="onLoad"/>
 <text x="840px" id="0" y="623px" style="background-color:#D8D8D8;font-size:40;text-decoration:none;fill:#3C5F8B;font-family:arial;font-style:normal;font-weight:normal;" class="AnText" transform="matrix(1 0 0 1 -525.9999796549479 1.333333969116211)">CPM</text>
 <text x="1920px" id="1" y="623px" style="background-color:#D8D8D8;font-size:40;text-decoration:none;fill:#3C5F8B;font-family:arial;font-style:normal;font-weight:normal;" class="AnText" transform="matrix(1 0 0 1 568.3333333333335 1.6666666666667425)">PMU</text>
 <g>
 <g id="TACONF_PROJ_ISCS_SYMBOLS_DOHAHK_BACS_CPM_RUN_SVG">
 <rect x="-130.83333333333343" y="-162.49999999999994" transform="matrix(1.3,0,0,1.3,0,0) translate(353.0,447.0)" width="105.00001" style="opacity:1;fill:none;fill-opacity:1;fill-rule:nonzero;stroke:#005d96;stroke-width:5;stroke-linecap:butt;stroke-linejoin:miter;stroke-miterlimit:4;stroke-dasharray:none;stroke-opacity:1" height="135" id="rect64955"/>
 <text x="19.900124" xml:space="preserve" y="127.25037" id="text64957" style="font-style:normal;font-variant:normal;font-weight:normal;font-stretch:normal;font-size:32.5px;line-height:125%;font-family:sans-serif;text-align:start;letter-spacing:0px;word-spacing:0px;writing-mode:lr-tb;text-anchor:start;fill:#005d96;fill-opacity:1;stroke:none;stroke-width:1px;stroke-linecap:butt;stroke-linejoin:miter;stroke-opacity:1" transform="matrix(1.3,0,0,1.3,0,0) matrix(1 0 0 1 219.66664632161456 282.0000305175781)">CPM</text>
 <path d="M237.8026173909505 313.9046325683594 L274.9984944661458 291.8657531738281L310.91505940755206 312.3265686035156L310.69655354817706 354.6606140136719L274.9459737141927 375.1327819824219L237.42084248860675 353.0451965332031Z" id="path64963" style="fill:none;fill-rule:evenodd;stroke:#005d96;stroke-width:1.5;stroke-linecap:butt;stroke-linejoin:miter;stroke-miterlimit:4;stroke-dasharray:none;stroke-opacity:1" transform="matrix(1.3,0,0,1.3,0,0) "/>
 <path d="M266.4832051595052 327.43939208984375 L275.02489217122394 322.3133544921875L283.8762715657552 327.60894775390625L283.7405293782552 337.7297058105469L275.00624593098956 342.4726867675781L266.1422627766927 337.1280212402344Z" id="path64963-9" style="fill:none;fill-rule:evenodd;stroke:#005d96;stroke-width:3.50000024;stroke-linecap:butt;stroke-linejoin:miter;stroke-miterlimit:4;stroke-dasharray:none;stroke-opacity:1" transform="matrix(1.3,0,0,1.3,0,0) "/>
 <path d="M274.99232991536456 321.15472412109375 C275.26866658528644 299.737548828125 275.2787373860677 298.958740234375 275.2787373860677 298.958740234375L275.2787373860677 298.958740234375" id="path64980" style="fill:none;fill-rule:evenodd;stroke:#005d96;stroke-width:3.00000024;stroke-linecap:butt;stroke-linejoin:miter;stroke-miterlimit:4;stroke-dasharray:none;stroke-opacity:1" transform="matrix(1.3,0,0,1.3,0,0) "/>
 <path d="M269.29042561848956 310.990478515625 L275.35521443684894 315.4759521484375L280.42564900716144 310.7520751953125" id="path64982" style="fill:none;fill-rule:evenodd;stroke:#005d96;stroke-width:3.00000024;stroke-linecap:butt;stroke-linejoin:miter;stroke-miterlimit:4;stroke-dasharray:none;stroke-opacity:1" transform="matrix(1.3,0,0,1.3,0,0) "/>
 <path d="M269.38133748372394 303.9441833496094 L275.4461263020833 308.4296569824219L280.5165608723958 303.7057800292969" id="path64982-2" style="fill:none;fill-rule:evenodd;stroke:#005d96;stroke-width:3.00000024;stroke-linecap:butt;stroke-linejoin:miter;stroke-miterlimit:4;stroke-dasharray:none;stroke-opacity:1" transform="matrix(1.3,0,0,1.3,0,0) "/>
 <path d="M284.3956807454427 326.6626281738281 C302.53075154622394 316.22601318359375 303.19020589192706 315.8465270996094 303.19020589192706 315.8465270996094L303.19020589192706 315.8465270996094" id="path64980-8" style="fill:none;fill-rule:evenodd;stroke:#005d96;stroke-width:3.00000024;stroke-linecap:butt;stroke-linejoin:miter;stroke-miterlimit:4;stroke-dasharray:none;stroke-opacity:1" transform="matrix(1.3,0,0,1.3,0,0) "/>
 <path d="M290.1067708333333 316.4872131347656 L289.3479512532552 324.1546630859375L295.83461507161456 326.33770751953125" id="path64982-6" style="fill:none;fill-rule:evenodd;stroke:#005d96;stroke-width:3.00000024;stroke-linecap:butt;stroke-linejoin:miter;stroke-miterlimit:4;stroke-dasharray:none;stroke-opacity:1" transform="matrix(1.3,0,0,1.3,0,0) "/>
 <path d="M296.07323201497394 313.05352783203125 L295.31444295247394 320.7209777832031L301.8011067708333 322.904052734375" id="path64982-2-1" style="fill:none;fill-rule:evenodd;stroke:#005d96;stroke-width:3.00000024;stroke-linecap:butt;stroke-linejoin:miter;stroke-miterlimit:4;stroke-dasharray:none;stroke-opacity:1" transform="matrix(1.3,0,0,1.3,0,0) "/>
 <path d="M265.56310017903644 327.4713439941406 C247.61380513509113 316.7673645019531 246.96112569173175 316.3781433105469 246.96112569173175 316.3781433105469L246.96112569173175 316.3781433105469" id="path64980-6" style="fill:none;fill-rule:evenodd;stroke:#005d96;stroke-width:3.00000024;stroke-linecap:butt;stroke-linejoin:miter;stroke-miterlimit:4;stroke-dasharray:none;stroke-opacity:1" transform="matrix(1.3,0,0,1.3,0,0) "/>
 <path d="M254.2778828938802 327.6716003417969 L260.9849446614583 324.2880859375L259.37096150716144 317.4398193359375" id="path64982-64" style="fill:none;fill-rule:evenodd;stroke:#005d96;stroke-width:3.00000024;stroke-linecap:butt;stroke-linejoin:miter;stroke-miterlimit:4;stroke-dasharray:none;stroke-opacity:1" transform="matrix(1.3,0,0,1.3,0,0) "/>
 <path d="M248.31635030110675 324.24664306640625 L255.02345784505206 320.8631286621094L253.4094746907552 314.0148620605469" id="path64982-2-4" style="fill:none;fill-rule:evenodd;stroke:#005d96;stroke-width:3.00000024;stroke-linecap:butt;stroke-linejoin:miter;stroke-miterlimit:4;stroke-dasharray:none;stroke-opacity:1" transform="matrix(1.3,0,0,1.3,0,0) "/>
 <path d="M274.7038167317708 343.5171203613281 C274.42748006184894 364.9342956542969 274.4174397786458 365.7131042480469 274.4174397786458 365.7131042480469L274.4174397786458 365.7131042480469" id="path64980-7" style="fill:none;fill-rule:evenodd;stroke:#005d96;stroke-width:3.00000024;stroke-linecap:butt;stroke-linejoin:miter;stroke-miterlimit:4;stroke-dasharray:none;stroke-opacity:1" transform="matrix(1.3,0,0,1.3,0,0) "/>
 <path d="M268.7415364583333 353.5296936035156 L274.92006429036456 349.2033996582031L279.8669026692708 354.0575256347656" id="path64982-0" style="fill:none;fill-rule:evenodd;stroke:#005d96;stroke-width:3.00000024;stroke-linecap:butt;stroke-linejoin:miter;stroke-miterlimit:4;stroke-dasharray:none;stroke-opacity:1" transform="matrix(1.3,0,0,1.3,0,0) "/>
 <path d="M268.65062459309894 360.5760192871094 L274.82912190755206 356.2497253417969L279.7759602864583 361.1038513183594" id="path64982-2-3" style="fill:none;fill-rule:evenodd;stroke:#005d96;stroke-width:3.00000024;stroke-linecap:butt;stroke-linejoin:miter;stroke-miterlimit:4;stroke-dasharray:none;stroke-opacity:1" transform="matrix(1.3,0,0,1.3,0,0) "/>
 <path d="M284.3878987630208 338.4109191894531 C302.2890218098958 349.2469177246094 302.93996175130206 349.6409606933594 302.93996175130206 349.6409606933594L302.93996175130206 349.6409606933594" id="path64980-8-9" style="fill:none;fill-rule:evenodd;stroke:#005d96;stroke-width:3.00000024;stroke-linecap:butt;stroke-linejoin:miter;stroke-miterlimit:4;stroke-dasharray:none;stroke-opacity:1" transform="matrix(1.3,0,0,1.3,0,0) "/>
 <path d="M289.87376912434894 348.7104187011719 L289.28380330403644 341.0280456542969L295.81691487630206 338.9892883300781" id="path64982-6-1" style="fill:none;fill-rule:evenodd;stroke:#005d96;stroke-width:3.00000024;stroke-linecap:butt;stroke-linejoin:miter;stroke-miterlimit:4;stroke-dasharray:none;stroke-opacity:1" transform="matrix(1.3,0,0,1.3,0,0) "/>
 <path d="M295.7632649739583 352.2754821777344 L295.1732991536458 344.5931091308594L301.70641072591144 342.5543518066406" id="path64982-2-1-5" style="fill:none;fill-rule:evenodd;stroke:#005d96;stroke-width:3.00000024;stroke-linecap:butt;stroke-linejoin:miter;stroke-miterlimit:4;stroke-dasharray:none;stroke-opacity:1" transform="matrix(1.3,0,0,1.3,0,0) "/>
 <path d="M265.3533223470052 337.5639953613281 C247.28445943196613 348.0632629394531 246.62741597493488 348.4450378417969 246.62741597493488 348.4450378417969L246.62741597493488 348.4450378417969" id="path64980-6-7" style="fill:none;fill-rule:evenodd;stroke:#005d96;stroke-width:3.00000024;stroke-linecap:butt;stroke-linejoin:miter;stroke-miterlimit:4;stroke-dasharray:none;stroke-opacity:1" transform="matrix(1.3,0,0,1.3,0,0) "/>
 <path d="M253.97789510091144 337.2599182128906 L260.70140584309894 340.6103820800781L259.1209309895833 347.4665222167969" id="path64982-64-6" style="fill:none;fill-rule:evenodd;stroke:#005d96;stroke-width:3.00000024;stroke-linecap:butt;stroke-linejoin:miter;stroke-miterlimit:4;stroke-dasharray:none;stroke-opacity:1" transform="matrix(1.3,0,0,1.3,0,0) "/>
 <path d="M248.03317769368488 340.7142028808594 L254.75673421223956 344.06463623046875L253.17622884114581 350.9208068847656" id="path64982-2-4-5" style="fill:none;fill-rule:evenodd;stroke:#005d96;stroke-width:3.00000024;stroke-linecap:butt;stroke-linejoin:miter;stroke-miterlimit:4;stroke-dasharray:none;stroke-opacity:1" transform="matrix(1.3,0,0,1.3,0,0) "/>
 </g>
 </g>
 <g>
 <g id="TACONF_PROJ_ISCS_SYMBOLS_DOHAHK_BACS_HEX_OPEN_SVG">
 <rect x="-54.76190533333326" y="-33.59017766666663" transform="translate(883.0,437.0) " width="95.714279" style="opacity:0.98000004;fill:none;fill-opacity:1;fill-rule:nonzero;stroke:#005d96;stroke-width:2;stroke-linecap:butt;stroke-linejoin:miter;stroke-miterlimit:4;stroke-dasharray:none;stroke-dashoffset:10;stroke-opacity:0.95294118" height="51.071426" id="rect8099"/>
 <path style="fill:none;fill-rule:evenodd;stroke:#005d96;stroke-width:2;stroke-linecap:butt;stroke-linejoin:miter;stroke-miterlimit:4;stroke-dasharray:none;stroke-opacity:0.95294118" d="M821.7800699869792 409.2171936035156 L832.0913492838542 409.9437561035156L840.6089884440105 448.3948059082031L849.814188639323 448.0132751464844L839.087137858073 409.5650329589844L851.6077677408855 410.28875732421875" id="path8105"/>
 <path style="fill:none;fill-rule:evenodd;stroke:#005d96;stroke-width:2;stroke-linecap:butt;stroke-linejoin:miter;stroke-miterlimit:4;stroke-dasharray:none;stroke-opacity:0.95294118" d="M838.5257975260417 409.7630310058594 L854.7281901041667 410.1122741699219L863.2458902994792 448.5633239746094L872.4510294596355 448.1817932128906L861.7239786783855 409.7335510253906L874.244608561198 410.457275390625" id="path8105-1"/>
 <path style="fill:none;fill-rule:evenodd;stroke:#005d96;stroke-width:2;stroke-linecap:butt;stroke-linejoin:miter;stroke-miterlimit:4;stroke-dasharray:none;stroke-opacity:0.95294118" d="M860.988016764323 410.10430908203125 L877.190409342448 410.4535217285156L885.7081095377605 448.9045715332031L894.9132486979167 448.5230407714844L884.186258951823 410.0747985839844L896.7068277994792 410.79852294921875" id="path8105-8"/>
 <path style="fill:none;fill-rule:evenodd;stroke:#005d96;stroke-width:2;stroke-linecap:butt;stroke-linejoin:miter;stroke-miterlimit:4;stroke-dasharray:none;stroke-opacity:0.95294118" d="M884.1866861979167 410.44464111328125 L900.389139811198 410.7938537597656L908.9067789713542 449.2449035644531L918.1119791666667 448.8633728027344L907.3849283854167 410.4151306152344L919.9055582682292 411.13885498046875" id="path8105-3"/>
 <path style="fill:none;fill-rule:evenodd;stroke:#005d96;stroke-width:2;stroke-linecap:butt;stroke-linejoin:miter;stroke-miterlimit:4;stroke-dasharray:none;stroke-opacity:0.95294118" d="M918.257548014323 410.9436340332031 L928.9365641276042 411.2998962402344" id="path8134"/>
 <text x="23.928572" xml:space="preserve" y="99.147926" id="text8145" style="font-style:normal;font-weight:normal;font-size:40px;line-height:125%;font-family:sans-serif;letter-spacing:0px;word-spacing:0px;fill:#005d96;fill-opacity:1;stroke:#005d96;stroke-width:0;stroke-linecap:butt;stroke-linejoin:miter;stroke-miterlimit:4;stroke-dasharray:none;stroke-opacity:1" transform="matrix(1 0 0 1 809.6666666666667 390.3333435058594)">HEX</text>
 <rect x="-70.83333333333326" y="-44.30446256666663" transform="translate(883.0,437.0) " width="200.00002" style="opacity:0.98000004;fill:none;fill-opacity:1;fill-rule:nonzero;stroke:#005d96;stroke-width:5;stroke-linecap:butt;stroke-linejoin:miter;stroke-miterlimit:4;stroke-dasharray:none;stroke-dashoffset:10;stroke-opacity:1" height="120" id="rect8097"/>
 </g>
 </g>
 <g>
 <g id="TACONF_PROJ_ISCS_SYMBOLS_DOHAHK_BACS_CHWH_SVG">
 <path style="opacity:1;fill:#005d96;fill-opacity:1;fill-rule:nonzero;stroke:#005d96;stroke-width:0;stroke-linecap:round;stroke-linejoin:miter;stroke-miterlimit:4;stroke-dasharray:none;stroke-opacity:1" d="M1442.9999186197915 459.02801513671875 L1442.9999186197915 559.0279541015625L1642.9999186197915 559.0279541015625L1642.9999186197915 459.02801513671875L1442.9999186197915 459.02801513671875ZM1452.9999186197915 469.02801513671875 L1632.9999186197915 469.02801513671875L1632.9999186197915 549.0279541015625L1452.9999186197915 549.0279541015625L1452.9999186197915 469.02801513671875Z" id="rect35405"/>
 <text x="22.223356" xml:space="preserve" y="989.22766" id="text35442" style="font-style:normal;font-weight:normal;font-size:22.5px;line-height:125%;font-family:sans-serif;letter-spacing:0px;word-spacing:0px;fill:#000000;fill-opacity:1;stroke:none;stroke-width:1px;stroke-linecap:butt;stroke-linejoin:miter;stroke-opacity:1" transform="matrix(1 0 0 1 1442.9999186197915 356.66668701171875)"/>
 <text x="9.0913734" xml:space="preserve" y="135.18709" id="text35446" style="font-style:normal;font-weight:normal;font-size:20px;line-height:125%;font-family:sans-serif;letter-spacing:0px;word-spacing:0px;fill:#000000;fill-opacity:1;stroke:none;stroke-width:1px;stroke-linecap:butt;stroke-linejoin:miter;stroke-opacity:1" transform="matrix(1 0 0 1 1442.9999186197915 356.66668701171875)">BPV-RetEM-</text>
 <path style="opacity:1;fill:#005d96;fill-opacity:1;fill-rule:nonzero;stroke:#005d96;stroke-width:0;stroke-linecap:round;stroke-linejoin:miter;stroke-miterlimit:4;stroke-dasharray:none;stroke-opacity:1" d="M1442.9999186197915 359.02801513671875 L1442.9999186197915 459.02801513671875L1642.9999186197915 459.02801513671875L1642.9999186197915 359.02801513671875L1442.9999186197915 359.02801513671875ZM1452.9999186197915 369.02801513671875 L1632.9999186197915 369.02801513671875L1632.9999186197915 449.02801513671875L1452.9999186197915 449.02801513671875L1452.9999186197915 369.02801513671875Z" id="rect35405-1"/>
 <text x="9.0913744" xml:space="preserve" y="35.187149" id="text35446-0" style="font-style:normal;font-weight:normal;font-size:20px;line-height:125%;font-family:sans-serif;letter-spacing:0px;word-spacing:0px;fill:#000000;fill-opacity:1;stroke:none;stroke-width:1px;stroke-linecap:butt;stroke-linejoin:miter;stroke-opacity:1" transform="matrix(1 0 0 1 1442.9999186197915 356.66668701171875)">CV-EM-</text>
 </g>
 </g>
 <g>
 <g id="TACONF_PROJ_ISCS_SYMBOLS_DOHAHK_BACS_CHWP_RUN_SVG">
 <path style="opacity:1;fill:#005d96;fill-opacity:1;fill-rule:nonzero;stroke:#005d96;stroke-width:0;stroke-linecap:round;stroke-linejoin:miter;stroke-miterlimit:4;stroke-dasharray:none;stroke-opacity:1" d="M1240.3333740234375 358.6946716308594 L1240.3333740234375 558.6946411132812L1440.3333740234375 558.6946411132812L1440.3333740234375 358.6946716308594L1240.3333740234375 358.6946716308594ZM1250.3333740234375 368.6946716308594 L1430.3333740234375 368.6946716308594L1430.3333740234375 548.6946411132812L1250.3333740234375 548.6946411132812L1250.3333740234375 368.6946716308594Z" id="rect9623"/>
 <path id="path9944-2" d="M106.44927978515625 132.50552368164062 A12.499995231628418 12.499995231628418 0 0 0 93.94927978515625 145.00552368164062A12.499995231628418 12.499995231628418 0 0 0 93.97858428955078 145.84146118164062C94.2339096069336 145.84646606445312 94.48381042480469 145.8714599609375 94.70709991455078 145.8980712890625C95.29035186767578 145.96755981445312 95.86705017089844 146.0805206298828 96.44733428955078 146.17149353027344C96.50723266601562 146.1837921142578 97.29764556884766 146.34234619140625 97.96881866455078 146.48008728027344C97.97671508789062 146.46279907226562 97.99681091308594 146.4464874267578 98.04303741455078 146.43319702148438C98.0735855102539 146.4241943359375 98.10327911376953 146.40969848632812 98.13483428955078 146.40589904785156C98.26119232177734 146.3907928466797 98.4697265625 146.4057159423828 98.58405303955078 146.4138946533203C99.07657623291016 146.4493865966797 99.04022979736328 146.4501953125 99.50983428955078 146.5056915283203C99.62611389160156 146.51368713378906 99.74303436279297 146.525390625 99.85945129394531 146.53109741210938C100.25396728515625 146.5504913330078 100.06993865966797 146.5290985107422 100.49225616455078 146.53709411621094C100.72135162353516 146.5410919189453 100.77517700195312 146.55198669433594 101.00006866455078 146.57809448242188C101.0948715209961 146.58909606933594 101.19048309326172 146.60018920898438 101.28523254394531 146.61129760742188C101.38816833496094 146.62429809570312 101.49041748046875 146.64169311523438 101.59381866455078 146.650390625C101.60182189941406 146.65109252929688 102.18489837646484 146.6772003173828 102.21687316894531 146.6776885986328C102.4221420288086 146.68069458007812 102.62874603271484 146.65789794921875 102.83406066894531 146.67169189453125C102.9089584350586 146.67469787597656 102.9837417602539 146.67669677734375 103.05867004394531 146.6796875C103.80413818359375 146.6776885986328 104.54952239990234 146.67959594726562 105.29499053955078 146.6796875C105.6233901977539 146.68370056152344 105.94991302490234 146.66648864746094 106.27742004394531 146.69529724121094C106.32832336425781 146.6992950439453 106.38227844238281 146.69729614257812 106.43170928955078 146.7108917236328C106.52610778808594 146.7357940673828 106.61499786376953 146.77639770507812 106.70709991455078 146.80859375C106.74340057373047 146.82199096679688 106.78160095214844 146.8249969482422 106.81842803955078 146.8358917236328C107.31964874267578 146.8488006591797 107.8205795288086 146.87599182128906 108.32038116455078 146.91209411621094C108.4919204711914 146.9315948486328 108.66378784179688 146.94219970703125 108.83406066894531 146.97068786621094C108.89076232910156 146.98069763183594 108.9560317993164 146.98069763183594 109.01570129394531 146.9901885986328C109.09490203857422 146.99044799804688 109.17231750488281 146.98928833007812 109.25398254394531 146.9901885986328C109.38880157470703 146.99119567871094 109.52346801757812 146.9951934814453 109.65827178955078 146.99819946289062C109.80536651611328 147.002197265625 109.95256042480469 147.00718688964844 110.09967803955078 147.0098876953125C110.29696655273438 147.01390075683594 110.49424743652344 147.01390075683594 110.69148254394531 147.0198974609375C111.03938293457031 147.03070068359375 111.32441711425781 147.05349731445312 111.66999053955078 147.0764923095703C111.80856323242188 147.0854949951172 111.80345916748047 147.08349609375 111.82624053955078 147.08448791503906C111.84903717041016 147.08372497558594 111.87184143066406 147.0804901123047 111.89463806152344 147.0804901123047C111.92713928222656 147.07977294921875 111.9835433959961 147.05149841308594 111.99234008789062 147.08248901367188C111.9953384399414 147.0930938720703 111.99034118652344 147.10488891601562 111.99234008789062 147.11569213867188C114.03282928466797 146.93919372558594 116.0832290649414 146.8819580078125 118.12905883789062 146.82272338867188C118.37174224853516 146.8157196044922 118.5901107788086 146.8345184326172 118.79508209228516 146.8637237548828A12.499995231628418 12.499995231628418 0 0 0 118.94937133789062 145.0063018798828A12.499995231628418 12.499995231628418 0 0 0 106.44937133789062 132.5063018798828Z" style="opacity:1;fill:#000000;fill-opacity:1;fill-rule:nonzero;stroke:#005d96;stroke-width:0;stroke-linecap:round;stroke-linejoin:miter;stroke-miterlimit:4;stroke-dasharray:none;stroke-opacity:1" transform="matrix(1 0 0 1 1240.3333740234375 356.3333435058594)"/>
 <path id="path9944-6-1" d="M106.44927978515625 133.50552368164062 A11.499995231628418 11.499995231628418 0 0 0 94.94927978515625 145.00552368164062A11.499995231628418 11.499995231628418 0 0 0 94.99420166015625 145.94302368164062C95.47980499267578 146.0114288330078 95.9627685546875 146.0955810546875 96.44732666015625 146.17153930664062C96.5072250366211 146.183837890625 97.29764556884766 146.34237670898438 97.96881103515625 146.48013305664062C97.97671508789062 146.46282958984375 97.9968032836914 146.446533203125 98.04302978515625 146.4332275390625C98.0735855102539 146.4242401123047 98.103271484375 146.40972900390625 98.13483428955078 146.4059295654297C98.26118469238281 146.39083862304688 98.46971893310547 146.40574645996094 98.58405303955078 146.4139404296875C99.07656860351562 146.44943237304688 99.04022216796875 146.4502410888672 99.50983428955078 146.5057373046875C99.62610626220703 146.51373291015625 99.74303436279297 146.5254364013672 99.85944366455078 146.5311279296875C100.25396728515625 146.550537109375 100.06993103027344 146.5291290283203 100.49224853515625 146.53713989257812C100.72135162353516 146.5411376953125 100.77517700195312 146.55203247070312 101.00006866455078 146.57814025878906C101.0948715209961 146.58912658691406 101.19048309326172 146.60023498535156 101.28521728515625 146.611328125C101.38816833496094 146.62432861328125 101.49041748046875 146.64173889160156 101.59381866455078 146.6504364013672C101.60182189941406 146.65113830566406 102.18489074707031 146.67723083496094 102.21685791015625 146.677734375C102.42212677001953 146.6807403564453 102.62873840332031 146.65792846679688 102.83405303955078 146.67173767089844C102.90895080566406 146.6747283935547 102.98372650146484 146.67672729492188 103.05866241455078 146.6797332763672C103.80413055419922 146.677734375 104.54952239990234 146.67962646484375 105.29499053955078 146.6797332763672C105.62338256835938 146.68373107910156 105.94989776611328 146.66653442382812 106.27741241455078 146.69532775878906C106.32830810546875 146.6993408203125 106.38227844238281 146.69732666015625 106.43170928955078 146.7109375C106.52610778808594 146.73583984375 106.614990234375 146.77642822265625 106.70709991455078 146.8086395263672C106.74340057373047 146.82203674316406 106.78160095214844 146.8250274658203 106.81842803955078 146.8359375C107.31964111328125 146.8488311767578 107.82057189941406 146.87603759765625 108.32038116455078 146.91213989257812C108.49191284179688 146.931640625 108.66378021240234 146.94223022460938 108.83405303955078 146.97073364257812C108.8907470703125 146.98072814941406 108.95601654052734 146.98072814941406 109.01568603515625 146.990234375C109.09488677978516 146.990478515625 109.17230987548828 146.9893341064453 109.25396728515625 146.990234375C109.38878631591797 146.99122619628906 109.52346801757812 146.9952392578125 109.65827178955078 146.99822998046875C109.80535888671875 147.00222778320312 109.95256042480469 147.00723266601562 110.09967803955078 147.0099334716797C110.29695892333984 147.01393127441406 110.4942398071289 147.01393127441406 110.69146728515625 147.01992797851562C111.03938293457031 147.03073120117188 111.32440948486328 147.05352783203125 111.66999053955078 147.0765380859375C111.80854797363281 147.08554077148438 111.80345916748047 147.08352661132812 111.82624053955078 147.08453369140625C111.84903717041016 147.08377075195312 111.87184143066406 147.08053588867188 111.89463806152344 147.08053588867188C111.92713928222656 147.07981872558594 111.9835433959961 147.05152893066406 111.99234008789062 147.08253479003906C111.9953384399414 147.0931396484375 111.99034118652344 147.1049346923828 111.99234008789062 147.11573791503906C113.9197006225586 146.94937133789062 115.85617065429688 146.8898468017578 117.7892074584961 146.83448791503906A11.499995231628418 11.499995231628418 0 0 0 117.94937133789062 145.00636291503906A11.499995231628418 11.499995231628418 0 0 0 106.44937133789062 133.50636291503906Z" style="opacity:1;fill:#808080;fill-opacity:1;fill-rule:nonzero;stroke:#005d96;stroke-width:0;stroke-linecap:round;stroke-linejoin:miter;stroke-miterlimit:4;stroke-dasharray:none;stroke-opacity:1" transform="matrix(1 0 0 1 1240.3333740234375 356.3333435058594)"/>
 <path style="fill:none;fill-rule:evenodd;stroke:#000000;stroke-width:1px;stroke-linecap:butt;stroke-linejoin:miter;stroke-opacity:1" d="M1334.66162109375 502.0810852050781 L1358.65185546875 503.0908508300781L1334.66162109375 502.0810852050781Z" id="path10033-2"/>
 <text x="55" xml:space="preserve" y="1038.0765" id="text8095" style="font-style:normal;font-weight:normal;font-size:40px;line-height:125%;font-family:sans-serif;letter-spacing:0px;word-spacing:0px;fill:#000000;fill-opacity:1;stroke:none;stroke-width:1px;stroke-linecap:butt;stroke-linejoin:miter;stroke-opacity:1" transform="matrix(1 0 0 1 1240.3333740234375 356.3333435058594)"/>
 <text x="63.57143" xml:space="preserve" y="1043.0765" id="text8099" style="font-style:normal;font-weight:normal;font-size:40px;line-height:125%;font-family:sans-serif;letter-spacing:0px;word-spacing:0px;fill:#000000;fill-opacity:1;stroke:none;stroke-width:1px;stroke-linecap:butt;stroke-linejoin:miter;stroke-opacity:1" transform="matrix(1 0 0 1 1240.3333740234375 356.3333435058594)"/>
 <text x="44.999996" xml:space="preserve" y="185.93369" id="text8103" style="font-style:normal;font-weight:normal;font-size:40px;line-height:125%;font-family:sans-serif;letter-spacing:0px;word-spacing:0px;fill:#005d96;fill-opacity:1;stroke:none;stroke-width:1px;stroke-linecap:butt;stroke-linejoin:miter;stroke-opacity:1" transform="matrix(1 0 0 1 1240.3333740234375 356.3333435058594)">CHWP</text>
 <path id="path9944" d="M43.57142639160156 131.2898712158203 A12.499995231628418 12.499995231628418 0 0 0 31.071426391601562 143.7898712158203A12.499995231628418 12.499995231628418 0 0 0 31.100727081298828 144.6258087158203C31.356056213378906 144.6308135986328 31.60595703125 144.6558074951172 31.829242706298828 144.6824188232422C32.41249465942383 144.7519073486328 32.98918914794922 144.8648681640625 33.56947708129883 144.95584106445312C33.62937545776367 144.9681396484375 34.41979217529297 145.12669372558594 35.09096145629883 145.26443481445312C35.09886169433594 145.2471466064453 35.11894989013672 145.2308349609375 35.16518020629883 145.21754455566406C35.19573211669922 145.2085418701172 35.22542190551758 145.1940460205078 35.256980895996094 145.19024658203125C35.38333511352539 145.17514038085938 35.59186935424805 145.1900634765625 35.706199645996094 145.1982421875C36.1987190246582 145.23373413085938 36.16237258911133 145.2345428466797 36.631980895996094 145.2900390625C36.74825668334961 145.29803466796875 36.86518096923828 145.3097381591797 36.981590270996094 145.31544494628906C37.37611389160156 145.3348388671875 37.19207763671875 145.31344604492188 37.614402770996094 145.32144165039062C37.84349822998047 145.325439453125 37.89732360839844 145.33633422851562 38.122215270996094 145.36244201660156C38.21696472167969 145.37344360351562 38.31262969970703 145.38453674316406 38.407371520996094 145.39564514160156C38.510318756103516 145.4086456298828 38.61256408691406 145.42604064941406 38.715965270996094 145.4347381591797C38.724266052246094 145.43544006347656 39.30704116821289 145.4615478515625 39.339012145996094 145.4620361328125C39.544281005859375 145.4650421142578 39.750892639160156 145.44224548339844 39.956199645996094 145.45603942871094C40.03110885620117 145.45904541015625 40.10588455200195 145.46104431152344 40.180809020996094 145.4640350341797C40.9262809753418 145.4620361328125 41.671669006347656 145.4639434814453 42.417137145996094 145.4640350341797C42.74552917480469 145.46804809570312 43.072052001953125 145.45083618164062 43.399559020996094 145.47964477539062C43.450477600097656 145.483642578125 43.504425048828125 145.4816436767578 43.553855895996094 145.4952392578125C43.648216247558594 145.5201416015625 43.73714065551758 145.5607452392578 43.829246520996094 145.5929412841797C43.86558532714844 145.60633850097656 43.90373611450195 145.60934448242188 43.940574645996094 145.6202392578125C44.44178771972656 145.63314819335938 44.94272232055664 145.66033935546875 45.442527770996094 145.69644165039062C45.61406326293945 145.7159423828125 45.78593063354492 145.72654724121094 45.956199645996094 145.75503540039062C46.01293182373047 145.76504516601562 46.07817077636719 145.76504516601562 46.137840270996094 145.7745361328125C46.2170295715332 145.77479553222656 46.29446029663086 145.7736358642578 46.376121520996094 145.7745361328125C46.51094055175781 145.77554321289062 46.64561462402344 145.779541015625 46.780418395996094 145.7825469970703C46.927513122558594 145.7865447998047 47.07470703125 145.79153442382812 47.221824645996094 145.7942352294922C47.41910934448242 145.79824829101562 47.616390228271484 145.79824829101562 47.813621520996094 145.8042449951172C48.16152572631836 145.81504821777344 48.44655990600586 145.8378448486328 48.792137145996094 145.86083984375C48.930702209472656 145.86984252929688 48.92560958862305 145.8678436279297 48.948387145996094 145.86883544921875C48.971168518066406 145.86807250976562 48.99395751953125 145.86483764648438 49.016746520996094 145.86483764648438C49.04923629760742 145.86412048339844 49.10560607910156 145.83584594726562 49.11440658569336 145.86683654785156C49.117408752441406 145.87744140625 49.11240768432617 145.8892364501953 49.11440658569336 145.90003967285156C51.15489196777344 145.72354125976562 53.20529556274414 145.6663055419922 55.25112533569336 145.60707092285156C55.493804931640625 145.60006713867188 55.71217346191406 145.61886596679688 55.91714096069336 145.6480712890625A12.499995231628418 12.499995231628418 0 0 0 56.07143783569336 143.7906494140625A12.499995231628418 12.499995231628418 0 0 0 43.57143783569336 131.2906494140625Z" style="opacity:1;fill:#000000;fill-opacity:1;fill-rule:nonzero;stroke:#005d96;stroke-width:0;stroke-linecap:round;stroke-linejoin:miter;stroke-miterlimit:4;stroke-dasharray:none;stroke-opacity:1" transform="matrix(1 0 0 1 1240.3333740234375 356.3333435058594)"/>
 <path id="path9944-6" d="M43.57142639160156 132.2898712158203 A11.499995231628418 11.499995231628418 0 0 0 32.07142639160156 143.7898712158203A11.499995231628418 11.499995231628418 0 0 0 32.11634826660156 144.7273712158203C32.601951599121094 144.7957763671875 33.08491516113281 144.8799285888672 33.56947326660156 144.9558868408203C33.629371643066406 144.9681854248047 34.41978454589844 145.12672424316406 35.09095764160156 145.2644805908203C35.09885787963867 145.24717712402344 35.11894607543945 145.2308807373047 35.16517639160156 145.2175750732422C35.19572448730469 145.20858764648438 35.22541809082031 145.19407653808594 35.25697708129883 145.19027709960938C35.38332748413086 145.17518615722656 35.59186553955078 145.19009399414062 35.70619583129883 145.1982879638672C36.19871520996094 145.23377990722656 36.1623649597168 145.23458862304688 36.63197708129883 145.2900848388672C36.748252868652344 145.29808044433594 36.86517333984375 145.30978393554688 36.98158645629883 145.3154754638672C37.3761100769043 145.3348846435547 37.192073822021484 145.3134765625 37.61439895629883 145.3214874267578C37.84349060058594 145.3254852294922 37.89731979370117 145.3363800048828 38.12221145629883 145.36248779296875C38.21696090698242 145.37347412109375 38.3126220703125 145.38458251953125 38.40736770629883 145.3956756591797C38.510311126708984 145.40867614746094 38.6125602722168 145.42608642578125 38.71596145629883 145.43478393554688C38.72426223754883 145.43548583984375 39.30703353881836 145.46157836914062 39.33900833129883 145.4620819091797C39.54427719116211 145.465087890625 39.75088882446289 145.44227600097656 39.95619583129883 145.45608520507812C40.031105041503906 145.45907592773438 40.10587692260742 145.46107482910156 40.18080520629883 145.46408081054688C40.926273345947266 145.4620819091797 41.671661376953125 145.46397399902344 42.41713333129883 145.46408081054688C42.74552536010742 145.46807861328125 43.072044372558594 145.4508819580078 43.39955520629883 145.47967529296875C43.45047378540039 145.4836883544922 43.504417419433594 145.48167419433594 43.55385208129883 145.4952850341797C43.64821243286133 145.5201873779297 43.73713684082031 145.56077575683594 43.82924270629883 145.59298706054688C43.86558151245117 145.60638427734375 43.90373229980469 145.609375 43.94057083129883 145.6202850341797C44.4417839050293 145.6331787109375 44.94271469116211 145.66038513183594 45.44252395629883 145.6964874267578C45.61405944824219 145.7159881591797 45.78592300415039 145.72657775878906 45.95619583129883 145.7550811767578C46.01292419433594 145.76507568359375 46.078163146972656 145.76507568359375 46.13783645629883 145.7745819091797C46.21702575683594 145.7748260498047 46.294456481933594 145.773681640625 46.37611770629883 145.7745819091797C46.51093673706055 145.77557373046875 46.64561080932617 145.7795867919922 46.78041458129883 145.78257751464844C46.92750549316406 145.7865753173828 47.07469940185547 145.7915802001953 47.22182083129883 145.79428100585938C47.419105529785156 145.79827880859375 47.61638641357422 145.79827880859375 47.81361770629883 145.8042755126953C48.161521911621094 145.81507873535156 48.446556091308594 145.83787536621094 48.79213333129883 145.8608856201172C48.930694580078125 145.86988830566406 48.925601959228516 145.8678741455078 48.94838333129883 145.86888122558594C48.971160888671875 145.8681182861328 48.993953704833984 145.86488342285156 49.01674270629883 145.86488342285156C49.049232482910156 145.86416625976562 49.1056022644043 145.83587646484375 49.114402770996094 145.86688232421875C49.117401123046875 145.8774871826172 49.112403869628906 145.8892822265625 49.114402770996094 145.90008544921875C51.0417594909668 145.7337188720703 52.978233337402344 145.6741943359375 54.911277770996094 145.61883544921875A11.499995231628418 11.499995231628418 0 0 0 55.071434020996094 143.79071044921875A11.499995231628418 11.499995231628418 0 0 0 43.571434020996094 132.29071044921875Z" style="opacity:1;fill:#808080;fill-opacity:1;fill-rule:nonzero;stroke:#005d96;stroke-width:0;stroke-linecap:round;stroke-linejoin:miter;stroke-miterlimit:4;stroke-dasharray:none;stroke-opacity:1" transform="matrix(1 0 0 1 1240.3333740234375 356.3333435058594)"/>
 <path style="fill:none;fill-rule:evenodd;stroke:#000000;stroke-width:1px;stroke-linecap:butt;stroke-linejoin:miter;stroke-opacity:1" d="M1271.78369140625 500.8653869628906 L1295.77392578125 501.8751525878906L1271.78369140625 500.8653869628906Z" id="path10033"/>
 <ellipse transform="translate(1267.0,403.0) " style="opacity:1;fill:#000000;fill-opacity:1;fill-rule:nonzero;stroke:#005d96;stroke-width:0;stroke-linecap:round;stroke-linejoin:miter;stroke-miterlimit:4;stroke-dasharray:none;stroke-opacity:1" rx="63.499996" cx="50.833333333333485" id="path9801-2" ry="63.499992" cy="33.19548533333331"/>
 <rect x="50.33334133333348" y="-30.304512666666685" transform="translate(1267.0,403.0) " width="89.999992" style="opacity:1;fill:#000000;fill-opacity:1;fill-rule:nonzero;stroke:#005d96;stroke-width:0;stroke-linecap:round;stroke-linejoin:miter;stroke-miterlimit:4;stroke-dasharray:none;stroke-opacity:1" height="39.999989" id="rect9874"/>
 <rect x="51.33334133333348" y="-29.304512666666685" transform="translate(1267.0,403.0) " width="87.999992" style="opacity:1;fill:#005d96;fill-opacity:1;fill-rule:nonzero;stroke:#005d96;stroke-width:0;stroke-linecap:round;stroke-linejoin:miter;stroke-miterlimit:4;stroke-dasharray:none;stroke-opacity:1" height="37.999989" id="rect9874-2"/>
 <ellipse transform="translate(1267.0,403.0) " style="opacity:1;fill:#005d96;fill-opacity:1;fill-rule:nonzero;stroke:#005d96;stroke-width:0;stroke-linecap:round;stroke-linejoin:miter;stroke-miterlimit:4;stroke-dasharray:none;stroke-opacity:1" rx="62.499996" cx="50.833333333333485" id="path9801" ry="62.499992" cy="33.19548533333331"/>
 <ellipse transform="translate(1267.0,403.0) " style="opacity:1;fill:#000000;fill-opacity:1;fill-rule:nonzero;stroke:#005d96;stroke-width:0;stroke-linecap:round;stroke-linejoin:miter;stroke-miterlimit:4;stroke-dasharray:none;stroke-opacity:1" rx="54.999996" cx="50.833333333333485" id="path9801-6" ry="54.999996" cy="33.19548533333331"/>
 <ellipse transform="translate(1267.0,403.0) " style="opacity:1;fill:#005d96;fill-opacity:1;fill-rule:nonzero;stroke:#005d96;stroke-width:0;stroke-linecap:round;stroke-linejoin:miter;stroke-miterlimit:4;stroke-dasharray:none;stroke-opacity:1" rx="53.999996" cx="50.833333333333485" id="path9801-6-2" ry="53.999996" cy="33.19548533333331"/>
 <path style="fill:none;fill-rule:evenodd;stroke:#000000;stroke-width:1px;stroke-linecap:butt;stroke-linejoin:miter;stroke-opacity:1" d="M1316.047607421875 380.83837890625 L1315.3333740234375 490.8384094238281" id="path9936"/>
 <path style="fill:none;fill-rule:evenodd;stroke:#000000;stroke-width:1px;stroke-linecap:butt;stroke-linejoin:miter;stroke-opacity:1" d="M1371.0477294921875 436.55267333984375 L1263.1905517578125 432.9812316894531" id="path9938"/>
 <path style="fill:none;fill-rule:evenodd;stroke:#000000;stroke-width:1px;stroke-linecap:butt;stroke-linejoin:miter;stroke-opacity:1" d="M1353.90478515625 478.6955261230469 L1279.619140625 394.4098205566406" id="path9940"/>
 <path style="fill:none;fill-rule:evenodd;stroke:#000000;stroke-width:1px;stroke-linecap:butt;stroke-linejoin:miter;stroke-opacity:1" d="M1353.1905517578125 396.55267333984375 L1279.619140625 474.4098205566406" id="path9942"/>
 <g id="layer2"/>
 <g id="layer1"/>
 </g>
 </g>
 <g>
 <g id="layer1">
 <rect x="6.6666666666667425" y="23.33333333333337" transform="translate(1870.0,397.0) " width="157" style="opacity:1;fill:#005D96;fill-opacity:1;fill-rule:nonzero;stroke:none;stroke-width:10;stroke-linecap:round;stroke-linejoin:miter;stroke-miterlimit:4;stroke-dasharray:none;stroke-opacity:1" height="80" id="rect8076"/>
 <rect x="14.523806266666742" y="31.279763533333373" transform="translate(1870.0,397.0) " width="141.28572" style="color:#000000;clip-rule:nonzero;display:inline;overflow:visible;visibility:visible;opacity:1;isolation:auto;mix-blend-mode:normal;color-interpolation:sRGB;color-interpolation-filters:linearRGB;solid-color:#000000;solid-opacity:1;fill:#ffffff;fill-opacity:1;fill-rule:nonzero;stroke:none;stroke-width:10;stroke-linecap:round;stroke-linejoin:miter;stroke-miterlimit:4;stroke-dasharray:none;stroke-dashoffset:0;stroke-opacity:1;color-rendering:auto;image-rendering:auto;shape-rendering:auto;text-rendering:auto;enable-background:accumulate" height="64.10714" id="rect8088"/>
 <text x="50" xml:space="preserve" y="46.329346" id="text8090" style="font-style:normal;font-weight:bold;font-size:40px;line-height:125%;font-family:sans-serif;letter-spacing:0px;word-spacing:0px;fill:#005D96;fill-opacity:1;stroke:none;stroke-width:1px;stroke-linecap:butt;stroke-linejoin:miter;stroke-opacity:1" transform="matrix(1 0 0 1 1876.6666666666667 420.33333333333337)">CDS</text>
 </g>
 </g>
 <g>
 <g id="layer1">
 <rect x="3.333333333333485" y="-3.3333333333333712" transform="translate(2450.0,427.0) " width="157" style="opacity:1;fill:#005D96;fill-opacity:1;fill-rule:nonzero;stroke:none;stroke-width:10;stroke-linecap:round;stroke-linejoin:miter;stroke-miterlimit:4;stroke-dasharray:none;stroke-opacity:1" height="80" id="rect8076"/>
 <rect x="11.190472933333485" y="4.613096866666629" transform="translate(2450.0,427.0) " width="141.28572" style="color:#000000;clip-rule:nonzero;display:inline;overflow:visible;visibility:visible;opacity:1;isolation:auto;mix-blend-mode:normal;color-interpolation:sRGB;color-interpolation-filters:linearRGB;solid-color:#000000;solid-opacity:1;fill:#ffffff;fill-opacity:1;fill-rule:nonzero;stroke:none;stroke-width:10;stroke-linecap:round;stroke-linejoin:miter;stroke-miterlimit:4;stroke-dasharray:none;stroke-dashoffset:0;stroke-opacity:1;color-rendering:auto;image-rendering:auto;shape-rendering:auto;text-rendering:auto;enable-background:accumulate" height="64.10714" id="rect8088"/>
 <text x="41.462402" xml:space="preserve" y="50.329346" id="text8090" style="font-style:normal;font-weight:bold;font-size:40px;line-height:125%;font-family:sans-serif;letter-spacing:0px;word-spacing:0px;fill:#005D96;fill-opacity:1;stroke:none;stroke-width:1px;stroke-linecap:butt;stroke-linejoin:miter;stroke-opacity:1" transform="matrix(1 0 0 1 2453.3333333333335 423.6666564941406)">PMU</text>
 </g>
 </g>

 </svg>